<svg width="160" height="190" viewBox="0 0 160 190" fill="none" xmlns="http://www.w3.org/2000/svg">
<path d="M0 47.5L80 95V190L0 142.5V47.5Z" fill="#8F2427"/>
<path d="M160 47.5L80 95V190L160 142.5V47.5Z" fill="#223C8F"/>
<path d="M80 0L160 47.5L80 95L0 47.5L80 0Z" fill="#1E7F44"/>
<path d="M0 118.25V142L20 153.875V130.125L40 142L60 153.875V177.625L80 189.5V165.75V142V118.25V94.5L60 82.625L40 70.75L20 58.875L0 47V70.75V94.5V118.25Z" fill="#E03A3E"/>
<path d="M40 96.875L60 108.75V132.5L40 120.625L20 108.75V85L40 96.875Z" fill="#8F2427"/>
<path d="M80 118.25V94.5L160 47V70.75L135 85.5938V156.844L115 168.719V97.4688L80 118.25Z" fill="#3665D3"/>
<path d="M100 11.875L80 0L0 47.5L20 59.375L40 47.5L50 41.5625L60 35.625L65 32.6562L60 59.375L105 56.4063L100 59.375L90 65.3125L80 71.25L60 83.125L80 95L160 47.5L140 35.625L90 41.5625L100 11.875Z" fill="#2DBE60"/>
</svg>
